<svg xmlns="http://www.w3.org/2000/svg" width="14" height="14" viewBox="0 0 14 14">
    <defs>
        <style>
            .cls-1{fill:#e35d29}.cls-2,.cls-3{stroke:none}.cls-3{fill:#29006a}
        </style>
    </defs>
    <g id="Path_1" class="cls-1" data-name="Path 1">
        <path d="M7 13.5A6.507 6.507 0 0 1 .5 7C.5 3.416 3.416.5 7 .5s6.5 2.916 6.5 6.5-2.916 6.5-6.5 6.5z" class="cls-2"/>
        <path d="M7 1C3.692 1 1 3.692 1 7s2.692 6 6 6 6-2.692 6-6-2.692-6-6-6m0-1a7 7 0 1 1 0 14A7 7 0 0 1 7 0z" class="cls-3"/>
    </g>
</svg>
