<svg xmlns="http://www.w3.org/2000/svg" width="8.9" height="9.3" viewBox="0 0 8.9 9.3">
    <defs>
        <style>
            .cls-1{fill:none}.cls-2,.cls-3{stroke:none}.cls-3{fill:#29006a}
        </style>
    </defs>
    <g id="Path_15" class="cls-1" data-name="Path 15">
        <path d="M4.45 0A4.553 4.553 0 0 1 8.9 4.65 4.553 4.553 0 0 1 4.45 9.3 4.553 4.553 0 0 1 0 4.65 4.553 4.553 0 0 1 4.45 0z" class="cls-2"/>
        <path d="M4.45 1C2.548 1 1 2.637 1 4.65S2.548 8.3 4.45 8.3c1.902 0 3.45-1.637 3.45-3.65S6.352 1 4.45 1m0-1C6.908 0 8.9 2.082 8.9 4.65c0 2.568-1.992 4.65-4.45 4.65S0 7.218 0 4.65C0 2.082 1.992 0 4.45 0z" class="cls-3"/>
    </g>
</svg>
